# xmcd CD database file
#
# Track frame offsets:
#	150
#	22225
#	40991
#	61522
#	78968
#	97956
#	112948
#	133194
#	159971
#	180623
#	199247
#	216360
#	236821
#	253083
#
# Disc length: 3621 seconds
#
# Revision: 0
# Processed by: cddbd v1.5.2PL0 Copyright (c) Steve Scherf et al.
# Submitted via: CD2WAV32(JP) R3.22
#
DISCID=bd0e230e
DTITLE=Rin' - 飛鳥
DYEAR=2004
DGENRE=JPop
TTITLE0=飛鳥
TTITLE1=美貌の國
TTITLE2=THE GRACE
TTITLE3=仮面
TTITLE4=紅
TTITLE5=innocence
TTITLE6=胡蝶之夢
TTITLE7=Nomado
TTITLE8=鏡月
TTITLE9=天華
TTITLE10=花吹雪
TTITLE11=明日香川
TTITLE12=沙羅双樹
TTITLE13=Hanging in there
EXTD=
EXTT0=
EXTT1=
EXTT2=
EXTT3=
EXTT4=
EXTT5=
EXTT6=
EXTT7=
EXTT8=
EXTT9=
EXTT10=
EXTT11=
EXTT12=
EXTT13=
PLAYORDER=
